<svg xmlns="http://www.w3.org/2000/svg" width="279" height="134" viewBox="0 0 279 134">
  <g id="Group_27" data-name="Group 27" transform="translate(-406 -4846)">
    <g id="Rectangle_16" data-name="Rectangle 16" transform="translate(406 4846)" fill="rgba(0,0,0,0.65)" stroke="#707070" stroke-width="1" opacity="0.95">
      <rect width="279" height="134" stroke="none"/>
      <rect x="0.5" y="0.5" width="278" height="133" fill="none"/>
    </g>
    <path id="master-hc" d="M202.377,12.791a4.611,4.611,0,0,1-6.6,0,4.631,4.631,0,0,1-1.349-3.349,4.574,4.574,0,0,1,1.366-3.336,4.619,4.619,0,0,1,6.588,0,4.546,4.546,0,0,1,1.37,3.336A4.6,4.6,0,0,1,202.377,12.791Zm-.459-6.226a3.972,3.972,0,0,0-5.675,0,3.955,3.955,0,0,0-1.171,2.881,3.987,3.987,0,0,0,1.164,2.894,3.967,3.967,0,0,0,5.682,0,4,4,0,0,0,1.17-2.894,3.984,3.984,0,0,0-1.17-2.881Zm-1.1,3.55a1.487,1.487,0,0,1,.275.807V11.3c0,.123,0,.252.012.386a.869.869,0,0,0,.044.275l.032.062h-.838q-.008-.025-.015-.05c-.006-.018-.006-.041-.011-.062l-.021-.167v-.412a1.286,1.286,0,0,0-.486-1.186,2.19,2.19,0,0,0-1-.169H198.1v2.046h-.908V6.832h1.8a3.957,3.957,0,0,1,1.4.184,1.3,1.3,0,0,1,.791,1.317,1.152,1.152,0,0,1-.5,1.027,1.923,1.923,0,0,1-.741.246,1.23,1.23,0,0,1,.884.509ZM200.3,8.409a.8.8,0,0,0-.346-.759,2.239,2.239,0,0,0-1.089-.2H198.1V9.338h.811a2.463,2.463,0,0,0,.863-.117.816.816,0,0,0,.53-.813ZM176.14,42.461h-4.712V8.478H160.04V4.71h27.485V8.478H176.14ZM136.7,37.212a143.014,143.014,0,0,1,32.4,13.881V52.12A175.659,175.659,0,0,0,112.023,37.6l6.665,16.394h-5.16l-6.58-16.748c-3.676-.207-7.446-.322-11.31-.322q-4.112,0-8.082.164L80.914,53.993H75.751l6.759-16.632A176.955,176.955,0,0,0,22.145,52.116V51.083A144.639,144.639,0,0,1,57.577,36.443V26.38L43.64,4.71h5.178L59.88,22.715,70.944,4.71h5.172L62.181,26.38l0,8.96a145.289,145.289,0,0,1,22.4-3.074L96.07,3.993h2.3l11.58,28.5a141.261,141.261,0,0,1,22.038,3.481V8.478H120.6V4.71h27.486V8.478H136.7V37.212ZM97.223,12.479,89.54,32.032c2-.062,4.021-.1,6.088-.1q4.787,0,9.326.231L97.223,12.479ZM25.037,23.836H4.714V42.461H0V4.71H4.714V20.071H25.037V4.71h4.712V42.461l-4.712,0V23.836Z" transform="translate(443.999 4884.007)" fill="#fff" fill-rule="evenodd"/>
  </g>
</svg>
