<svg xmlns="http://www.w3.org/2000/svg" width="181.528" height="155.88" viewBox="0 0 181.528 155.88">
  <g id="laamu-footer" transform="translate(0.008 -0.33)">
    <path id="Path_5" data-name="Path 5" d="M.278,56.844a.157.157,0,0,1,.291,0c.157,2.641,1.455,4.3,3.917,4.3a3.246,3.246,0,0,0,3.671-3.178c0-2.238-1.455-3.223-3.917-4.477A5.573,5.573,0,0,1,.48,48.294a4.32,4.32,0,0,1,4.857-4.275,8.55,8.55,0,0,1,2.507.358,1.253,1.253,0,0,1,.962,1.544c0,.4-.2,1.455-.246,2.037,0,.2-.291.134-.291,0a3.246,3.246,0,0,0-3.246-3.29,2.775,2.775,0,0,0-3.089,3.022,4.477,4.477,0,0,0,3,3.895c3.38,1.724,4.768,3.156,4.678,5.752a4.812,4.812,0,0,1-5.394,4.477,7.61,7.61,0,0,1-3.066-.56A1.858,1.858,0,0,1,.01,59.687a10.3,10.3,0,0,1,.246-2.91" transform="translate(0 63.118)" fill="#5c5e5e"/>
    <path id="Path_6" data-name="Path 6" d="M11.524,58.065c0,2.238.291,2.619,1.9,2.753a.157.157,0,1,1,0,.313H7.719c-.2,0-.179-.313,0-.313,1.343-.179,1.7-.336,1.746-2.753V47.5c0-2.82-.515-2.82-1.746-3-.179,0-.246-.291,0-.291h5.3c.2,0,.179.269,0,.291-1.186.224-1.5.246-1.567,3V58.065" transform="translate(20.847 63.376)" fill="#5c5e5e"/>
    <path id="Path_7" data-name="Path 7" d="M20.357,53.565c-1.074,1.7-2.529,4.186-3.29,5.618s-.627,1.522.828,1.679c.179,0,.246.313,0,.313H12.9c-.2,0-.2-.269,0-.313a2.955,2.955,0,0,0,2.529-1.567c1.388-1.947,3.044-4.477,4.477-6.581C18.5,50.476,16.888,47.879,15.7,46c-.761-1.142-1.119-1.41-2.238-1.522-.179,0-.246-.291,0-.291h5.35c.246,0,.179.291,0,.291-1.231.134-1.231.56-.761,1.41.828,1.567,1.835,3.357,2.955,5.238,1.007-1.634,1.97-3.29,2.731-4.812s.6-1.656-.381-1.835c-.2,0-.246-.291,0-.291h4.387a.157.157,0,1,1,0,.291c-.783,0-1.3.179-2.238,1.589-1.455,2.059-2.865,4.141-3.895,5.82,1.365,2.238,3.492,5.6,4.768,7.386.783,1.119,1.3,1.455,2.238,1.522a.157.157,0,1,1,0,.313H23.468c-.224,0-.179-.313,0-.313,1.074-.112,1.03-.537.56-1.41-.716-1.276-2.238-3.76-3.559-5.887" transform="translate(18.366 63.331)" fill="#5c5e5e"/>
    <path id="Path_8" data-name="Path 8" d="M27.643,56.841c0-.179.313-.157.313,0,.134,2.641,1.433,4.32,3.783,4.32a3.268,3.268,0,0,0,3.738-3.2c0-2.238-1.433-3.2-3.917-4.477a5.573,5.573,0,0,1-3.648-5.193,4.32,4.32,0,0,1,4.812-4.275,7.834,7.834,0,0,1,2.507.358,1.253,1.253,0,0,1,.94,1.544c0,.381-.179,1.455-.246,2.014s-.291.134-.291,0a3.246,3.246,0,0,0-3.246-3.268,2.776,2.776,0,0,0-3.066,2.955A4.477,4.477,0,0,0,32.3,51.514c3.38,1.7,4.768,3.156,4.7,5.73A4.835,4.835,0,0,1,31.6,61.721a7.3,7.3,0,0,1-3.089-.582A1.88,1.88,0,0,1,27.4,59.684a11.371,11.371,0,0,1,.246-2.932" transform="translate(39.203 63.114)" fill="#5c5e5e"/>
    <path id="Path_9" data-name="Path 9" d="M38.862,58.54c0,1.634.381,1.7,1.791,1.724a19.336,19.336,0,0,0,2.238,0c2.238,0,2.731-1.477,3.044-3.2,0-.2.336-.224.336,0a24.621,24.621,0,0,1,.022,3.313c-.112.6-.582.828-1.612.828s-3.85-.112-6.424-.112H35.168a.157.157,0,1,1,0-.313c1.455-.157,1.746-.4,1.791-2.753V47.438c0-2.238,0-2.753-1.88-2.977-.179,0-.246-.291,0-.291h8.908c.806,0,1.231,0,1.186.671s-.179,1.7-.313,2.619c0,.2-.336.2-.313,0,0-1.365-.47-2.238-1.858-2.373a29.477,29.477,0,0,0-3.76,0V51.8h4.477c.783,0,.761-.313.962-.291s0,.157,0,.694a8.707,8.707,0,0,1-.269,1.656.157.157,0,0,1-.313,0c0-1.1-.694-1.1-1.813-1.142H38.817v5.73" transform="translate(50.063 63.326)" fill="#5c5e5e"/>
    <path id="Path_10" data-name="Path 10" d="M59.368,60.9v.6c0,.022-.2,0-.6-.47-1.724-1.97-3.559-3.962-6.894-7.319-2.6-2.641-4.7-4.812-5.842-5.887,0,2.1,0,7.3.246,11.192,0,1.074.515,1.791,2.238,1.947a.157.157,0,1,1,0,.313H43.387a.157.157,0,0,1,0-.313c.985-.179,1.343-.425,1.455-1.813.2-3.022.269-7.364.269-9.6V44.158c0-.045.2,0,.582.448,2.014,2.238,4.23,4.477,6.939,7.3,2.373,2.373,4.477,4.477,5.842,5.775,0-3.223,0-6.715-.134-10.52,0-1.992-.336-2.238-1.858-2.507a.157.157,0,1,1,0-.291H61c.224,0,.157.291,0,.291-1.03.179-1.321.9-1.365,2.238-.157,4.208-.269,8.215-.269,14.169" transform="translate(62.342 63.312)" fill="#5c5e5e"/>
    <path id="Path_11" data-name="Path 11" d="M54.978,56.837c0-.179.313-.157.313,0,.134,2.641,1.433,4.32,3.783,4.32a3.268,3.268,0,0,0,3.671-3.2c0-2.238-1.433-3.2-3.917-4.477a5.573,5.573,0,0,1-3.537-5.193,4.32,4.32,0,0,1,4.745-4.275,8.013,8.013,0,0,1,2.529.358,1.253,1.253,0,0,1,.94,1.544c0,.381-.179,1.455-.246,2.014s-.291.134-.291,0a3.246,3.246,0,0,0-3.2-3.178A2.8,2.8,0,0,0,56.679,47.7a4.477,4.477,0,0,0,3,3.895c3.38,1.7,4.768,3.156,4.7,5.73a4.835,4.835,0,0,1-5.394,4.477,7.3,7.3,0,0,1-3.089-.582,1.835,1.835,0,0,1-1.119-1.455,11.37,11.37,0,0,1,.246-2.932" transform="translate(78.388 63.125)" fill="#5c5e5e"/>
    <path id="Path_12" data-name="Path 12" d="M66.256,58.54c0,1.634.381,1.7,1.813,1.724a19.008,19.008,0,0,0,2.238,0c2.238,0,2.708-1.477,3.044-3.2,0-.2.336-.224.336,0a24.623,24.623,0,0,1-.134,3.313c0,.6-.582.828-1.612.828s-3.85-.112-6.424-.112H62.428a.157.157,0,1,1,0-.313c1.455-.157,1.746-.4,1.791-2.753V47.438c0-2.238,0-2.753-1.88-2.977-.179,0-.246-.291,0-.291h8.909c.806,0,1.231,0,1.186.671s-.179,1.7-.313,2.619c0,.2-.336.2-.313,0,0-1.365-.47-2.238-1.858-2.373a29.477,29.477,0,0,0-3.76,0V51.8h4.477c.783,0,.761-.313.962-.291s0,.157,0,.694a8.708,8.708,0,0,1-.269,1.656.157.157,0,0,1-.313,0c0-1.1-.694-1.1-1.813-1.142H66.256v5.73" transform="translate(78.353 63.326)" fill="#5c5e5e"/>
    <path id="Path_13" data-name="Path 13" d="M70.963,56.846c0-.179.313-.157.313,0,.134,2.641,1.433,4.32,3.783,4.32a3.246,3.246,0,0,0,3.671-3.2c0-2.238-1.432-3.2-3.917-4.477A5.6,5.6,0,0,1,71.164,48.3a4.32,4.32,0,0,1,4.88-4.275,7.835,7.835,0,0,1,2.507.358,1.253,1.253,0,0,1,.94,1.544c0,.381-.179,1.455-.246,2.014s-.291.134-.291,0a3.246,3.246,0,0,0-3.246-3.268,2.775,2.775,0,0,0-3.066,2.955,4.477,4.477,0,0,0,3,3.895c3.357,1.791,4.678,3.246,4.678,5.932a4.835,4.835,0,0,1-5.394,4.477,7.386,7.386,0,0,1-3.089-.582,1.88,1.88,0,0,1-1.119-1.455,11.371,11.371,0,0,1,.246-2.932" transform="translate(101.201 63.124)" fill="#5c5e5e"/>
    <path id="Path_14" data-name="Path 14" d="M59.55,34.07h0" transform="translate(84.589 47.915)" fill="#673065"/>
    <path id="Path_15" data-name="Path 15" d="M58.89,34.5l.246-.045-.045-.022Z" transform="translate(83.658 48.429)" fill="#673065"/>
    <path id="Path_16" data-name="Path 16" d="M59.077,34.57c-.179.2-.582.2-.627.4.179-.134.56-.246.806-.4H59.1Z" transform="translate(83.068 48.642)" fill="#673065"/>
    <path id="Path_17" data-name="Path 17" d="M58.254,35h-.022" transform="translate(82.663 49.236)" fill="#673065"/>
    <path id="Path_18" data-name="Path 18" d="M58.28,35h0" transform="translate(82.779 49.236)" fill="#673065"/>
    <path id="Path_19" data-name="Path 19" d="M58,35.16h0" transform="translate(82.386 49.466)" fill="#673065"/>
    <path id="Path_20" data-name="Path 20" d="M57.93,35.09h0" transform="translate(82.278 49.363)" fill="#673065"/>
    <path id="Path_21" data-name="Path 21" d="M58,35.08h.09" transform="translate(82.391 49.349)" fill="#673065"/>
    <path id="Path_22" data-name="Path 22" d="M58.09,35.061h0c.358,0,.358-.246,0,0" transform="translate(82.523 49.171)" fill="#673065"/>
    <path id="Path_23" data-name="Path 23" d="M58.44,34.65v.112a.858.858,0,0,1,.246-.112Z" transform="translate(83.018 48.743)" fill="#673065"/>
    <path id="Path_24" data-name="Path 24" d="M57.47,35.374a.239.239,0,0,0,.2-.134h-.157v.134" transform="translate(81.638 49.582)" fill="#673065"/>
    <path id="Path_25" data-name="Path 25" d="M57.39,35.23h0" transform="translate(81.526 49.562)" fill="#673065"/>
    <path id="Path_26" data-name="Path 26" d="M57.85,35Z" transform="translate(82.165 49.236)" fill="#673065"/>
    <path id="Path_27" data-name="Path 27" d="M57.05,35.375a.783.783,0,0,1,.246,0H57.05Z" transform="translate(81.044 49.755)" fill="#673065"/>
    <path id="Path_28" data-name="Path 28" d="M57.085,35.487a.716.716,0,0,1-.425,0,1.366,1.366,0,0,0,.4,0s0,0,0-.157" transform="translate(80.501 49.713)" fill="#673065"/>
    <path id="Path_29" data-name="Path 29" d="M57.16,35.4c.112,0,.157,0,.157-.134h0Z" transform="translate(81.195 49.625)" fill="#673065"/>
    <path id="Path_30" data-name="Path 30" d="M57.11,35.3l.179-.022h0Z" transform="translate(81.125 49.634)" fill="#673065"/>
    <path id="Path_31" data-name="Path 31" d="M57.592,35.06c-.224.134,0,.134.179.157s0-.112-.179-.157" transform="translate(81.687 49.328)" fill="#673065"/>
    <path id="Path_32" data-name="Path 32" d="M57.481,35.18h.045" transform="translate(81.371 49.491)" fill="#673065"/>
    <path id="Path_33" data-name="Path 33" d="M57.252,35.245l.09-.022L57.23,35.2Z" transform="translate(81.291 49.522)" fill="#673065"/>
    <path id="Path_34" data-name="Path 34" d="M57,35.32h-.4a.806.806,0,0,1,.336,0h0" transform="translate(80.414 49.665)" fill="#673065"/>
    <path id="Path_35" data-name="Path 35" d="M56.06,35.31h0Z" transform="translate(79.624 49.676)" fill="#673065"/>
    <path id="Path_36" data-name="Path 36" d="M56.78,35.309h0a.381.381,0,0,1,.224,0H56.78" transform="translate(80.659 49.652)" fill="#673065"/>
    <path id="Path_37" data-name="Path 37" d="M56.6,35.35h0" transform="translate(80.145 49.733)" fill="#673065"/>
    <path id="Path_38" data-name="Path 38" d="M57.087,35.31h-.022" transform="translate(80.868 49.676)" fill="#673065"/>
    <path id="Path_39" data-name="Path 39" d="M56.271,35.37h-.2l.2.134" transform="translate(79.67 49.767)" fill="#673065"/>
    <path id="Path_40" data-name="Path 40" d="M56.723,35.35h.022" transform="translate(80.018 49.733)" fill="#673065"/>
    <path id="Path_41" data-name="Path 41" d="M56.694,35.415h-.022c.336,0-.224-.134.2,0-.157,0,0-.112-.358-.134s0,.157.157.269h0Z" transform="translate(80.085 49.646)" fill="#673065"/>
    <path id="Path_42" data-name="Path 42" d="M57.42,35h0" transform="translate(81.554 49.236)" fill="#673065"/>
    <path id="Path_43" data-name="Path 43" d="M57.437,35a.94.94,0,0,0-.157.291,1.1,1.1,0,0,1,.313-.246h0a.179.179,0,0,1-.157,0" transform="translate(81.38 49.248)" fill="#673065"/>
    <path id="Path_44" data-name="Path 44" d="M56.77,35.18h0Z" transform="translate(80.653 49.491)" fill="#673065"/>
    <path id="Path_45" data-name="Path 45" d="M56,35.31l.2.157v-.112Z" transform="translate(79.55 49.683)" fill="#673065"/>
    <path id="Path_46" data-name="Path 46" d="M55.78,35.322l.112.067V35.3Z" transform="translate(79.232 49.666)" fill="#673065"/>
    <path id="Path_47" data-name="Path 47" d="M52.125,31.83c-.112,0,0,.134.179.269a.4.4,0,0,1,0-.246Z" transform="translate(73.983 44.745)" fill="#673065"/>
    <path id="Path_48" data-name="Path 48" d="M53.7,34.39a1.12,1.12,0,0,0,.291.157.916.916,0,0,0-.291-.157" transform="translate(76.288 48.376)" fill="#673065"/>
    <path id="Path_49" data-name="Path 49" d="M55.29,26.76h0" transform="translate(78.529 37.534)" fill="#673065"/>
    <path id="Path_50" data-name="Path 50" d="M53.836,34.526a1.276,1.276,0,0,1-.246-.246h0a.627.627,0,0,0,.313.269" transform="translate(76.133 48.225)" fill="#673065"/>
    <path id="Path_51" data-name="Path 51" d="M55,35.12h0" transform="translate(78.118 49.406)" fill="#673065"/>
    <path id="Path_52" data-name="Path 52" d="M55.08,35.14h0" transform="translate(78.234 49.434)" fill="#673065"/>
    <path id="Path_53" data-name="Path 53" d="M54.942,35.09H54.92" transform="translate(78.013 49.363)" fill="#673065"/>
    <path id="Path_54" data-name="Path 54" d="M52.45,32.71h0" transform="translate(74.496 45.984)" fill="#673065"/>
    <path id="Path_55" data-name="Path 55" d="M55.541,35.24a.358.358,0,0,1-.2,0h.224" transform="translate(78.614 49.577)" fill="#673065"/>
    <path id="Path_56" data-name="Path 56" d="M56.373,35.11h0" transform="translate(79.986 49.392)" fill="#673065"/>
    <path id="Path_57" data-name="Path 57" d="M55.856,35.13h-.313c-.045,0,.291.157.269,0" transform="translate(78.901 49.423)" fill="#673065"/>
    <path id="Path_58" data-name="Path 58" d="M55.844,35.15h0" transform="translate(79.134 49.449)" fill="#673065"/>
    <path id="Path_59" data-name="Path 59" d="M54.88,35.08h0" transform="translate(77.947 49.354)" fill="#673065"/>
    <path id="Path_60" data-name="Path 60" d="M55.647,35.112l.067-.09L55.58,35Z" transform="translate(78.949 49.24)" fill="#673065"/>
    <path id="Path_61" data-name="Path 61" d="M59.722,33.892l-.022.157.09-.179Z" transform="translate(84.798 47.638)" fill="#673065"/>
    <path id="Path_62" data-name="Path 62" d="M46.792,13.6l.179.09-.2-.134Z" transform="translate(66.44 18.79)" fill="#673065"/>
    <path id="Path_63" data-name="Path 63" d="M48.63,14.26l.157.112-.157-.112Z" transform="translate(69.08 19.784)" fill="#673065"/>
    <path id="Path_64" data-name="Path 64" d="M48.6,14.327v-.045l-.067-.022Z" transform="translate(68.933 19.783)" fill="#673065"/>
    <path id="Path_65" data-name="Path 65" d="M49.43,15.062h.045l-.022-.022Z" transform="translate(70.21 20.89)" fill="#673065"/>
    <path id="Path_66" data-name="Path 66" d="M49.6,15.267l.09.045-.022-.112Z" transform="translate(70.454 21.119)" fill="#673065"/>
    <path id="Path_67" data-name="Path 67" d="M49.52,15.582l.09.09.045-.112Z" transform="translate(70.342 21.631)" fill="#673065"/>
    <path id="Path_68" data-name="Path 68" d="M45.84,13.457l.09.022.134-.09Z" transform="translate(65.12 18.548)" fill="#673065"/>
    <path id="Path_69" data-name="Path 69" d="M26.99,14.195l.045.022.2-.067Z" transform="translate(38.347 19.627)" fill="#673065"/>
    <path id="Path_70" data-name="Path 70" d="M28.8,13.355h0l.179-.045Z" transform="translate(40.916 18.434)" fill="#673065"/>
    <path id="Path_71" data-name="Path 71" d="M28.71,13.412h.134L28.8,13.39Z" transform="translate(40.787 18.547)" fill="#673065"/>
    <path id="Path_72" data-name="Path 72" d="M29.91,13.29v.022l.022-.022Z" transform="translate(42.487 18.405)" fill="#673065"/>
    <path id="Path_73" data-name="Path 73" d="M30.16,13.337h.112l-.112-.067Z" transform="translate(42.845 18.377)" fill="#673065"/>
    <path id="Path_74" data-name="Path 74" d="M30.35,13.662h.134l-.067-.112Z" transform="translate(43.116 18.776)" fill="#673065"/>
    <path id="Path_75" data-name="Path 75" d="M26.24,14.839l.067-.045.045-.134Z" transform="translate(37.278 20.354)" fill="#673065"/>
    <path id="Path_76" data-name="Path 76" d="M34.335,7.116l.022-.045-.067-.2Z" transform="translate(48.709 8.099)" fill="#673065"/>
    <path id="Path_77" data-name="Path 77" d="M33.47,5.269v0Z" transform="translate(47.542 5.894)" fill="#673065"/>
    <path id="Path_78" data-name="Path 78" d="M33.53,5.245l.022.067V5.2Z" transform="translate(47.628 6.031)" fill="#673065"/>
    <path id="Path_79" data-name="Path 79" d="M33.43,4.062h.022L33.43,4.04Z" transform="translate(47.486 4.594)" fill="#673065"/>
    <path id="Path_80" data-name="Path 80" d="M33.4,3.872h.09V3.76Z" transform="translate(47.446 4.247)" fill="#673065"/>
    <path id="Path_81" data-name="Path 81" d="M33.7,3.627l.09.067V3.56Z" transform="translate(47.872 4)" fill="#673065"/>
    <path id="Path_82" data-name="Path 82" d="M34.991,7.77,34.947,7.7,34.79,7.68Z" transform="translate(49.424 9.102)" fill="#673065"/>
    <path id="Path_83" data-name="Path 83" d="M41.9,31.282l-.09.179.134-.2Z" transform="translate(59.392 43.932)" fill="#673065"/>
    <path id="Path_84" data-name="Path 84" d="M41.15,33.287l.09-.157h0Z" transform="translate(58.453 46.586)" fill="#673065"/>
    <path id="Path_85" data-name="Path 85" d="M41.16,33.087H41.2l.045-.067Z" transform="translate(58.467 46.427)" fill="#673065"/>
    <path id="Path_86" data-name="Path 86" d="M40.42,33.962l.022-.022H40.42Z" transform="translate(57.413 47.731)" fill="#673065"/>
    <path id="Path_87" data-name="Path 87" d="M40.22,34.2l.134-.022-.09-.067Z" transform="translate(57.134 47.976)" fill="#673065"/>
    <path id="Path_88" data-name="Path 88" d="M39.86,34.142l.112.022-.022-.134Z" transform="translate(56.622 47.864)" fill="#673065"/>
    <path id="Path_89" data-name="Path 89" d="M41.99,30.4l.067.134-.045-.2Z" transform="translate(59.645 42.611)" fill="#673065"/>
    <path id="Path_90" data-name="Path 90" d="M23.452,31.642l-.112.179.134-.2Z" transform="translate(33.16 44.444)" fill="#673065"/>
    <path id="Path_91" data-name="Path 91" d="M22.68,33.647l.09-.157h0Z" transform="translate(32.221 47.098)" fill="#673065"/>
    <path id="Path_92" data-name="Path 92" d="M22.69,33.447h.045l.045-.067Z" transform="translate(32.236 46.938)" fill="#673065"/>
    <path id="Path_93" data-name="Path 93" d="M21.95,34.345l.022-.022L21.95,34.3Z" transform="translate(31.183 48.243)" fill="#673065"/>
    <path id="Path_94" data-name="Path 94" d="M21.75,34.56l.134-.022-.067-.067Z" transform="translate(30.902 48.487)" fill="#673065"/>
    <path id="Path_95" data-name="Path 95" d="M21.39,34.49l.112.022L21.48,34.4Z" transform="translate(30.39 48.388)" fill="#673065"/>
    <path id="Path_96" data-name="Path 96" d="M23.52,30.78l.067.112-.045-.2Z" transform="translate(33.414 43.123)" fill="#673065"/>
    <path id="Path_97" data-name="Path 97" d="M23.482,31l.134-.112H23.46v.157" transform="translate(33.331 43.405)" fill="#673065"/>
    <path id="Path_98" data-name="Path 98" d="M44.356,23.912c.179-.381,0-.291.269-.716-.112.179-.157,0-.246,0l.2-.313h-.157a.828.828,0,0,0,0-.4h0a5.453,5.453,0,0,1,.2-.739.328.328,0,0,0-.2-.425c-.2-.067,0-.112,0-.179s.179,0,.112,0h-.112a1.566,1.566,0,0,0,0-.358.47.47,0,0,0,0,.134.962.962,0,0,0,0-.157h0a.47.47,0,0,1,0-.269,1.589,1.589,0,0,1-.2-.694.94.94,0,0,0-.291-.671V19.3c-.134-.381-.47-.671-.515-.94h0a3.335,3.335,0,0,0-.336-.694h0a5.438,5.438,0,0,1-.425-.6c-.157-.2-.313-.381-.492-.381s-.336-.358-.47-.515h0a1.724,1.724,0,0,1-.4-.425c-.537-.2-.806-.627-1.209-.851h0L39.7,14.6c0,.134,0,0-.179-.134a.985.985,0,0,0-.537-.224l-.269-.112c.291.179,0,.112-.134.2l-.134-.157h0c0-.134-.425-.224-.515-.358h-.649c.313-.134-.6-.134-.4-.291-.224.134-.134,0-.291,0a1.589,1.589,0,0,1,.739.313h-.246c.112.224.492,0,.6.157a.358.358,0,0,0-.291,0v-.112a1.164,1.164,0,0,1,.694.358c-.2,0,.224.157,0,.2h-.134l-.761-.246h-.157l-.828-.157c0-.134-.358-.246-.246-.313s0,.112-.381,0,.224,0,.313-.157-.2,0-.2-.157-.381.448-.157.515a.537.537,0,0,1,.381,0A9.356,9.356,0,0,0,28.24,16.57l-.358.4c0-.157,0-.336-.157-.291h.134c-.157,0-.358.4-.56.381a5.236,5.236,0,0,0-.2.537s-.157,0-.134-.112-.157.224-.112,0c-.246.649-.582,1.231-.873,1.858a5.193,5.193,0,0,0-.56,1.9h0a3.687,3.687,0,0,0-.157.358,1.947,1.947,0,0,1,.157.381c0,.134-.134,0-.157,0a8.782,8.782,0,0,0,0,1.88c0,.157.179,0,.2.179-.112-.157-.112,0-.112.2v.269c0-.09.179.806.47.649,0,.269,0,.246-.134.179a2.977,2.977,0,0,1,.157.828,7.407,7.407,0,0,0,.291.761,1.41,1.41,0,0,0,.515.761c-.224,0,0,0,0,.246h-.179a1.925,1.925,0,0,0,.224.358s0,.112,0,0,0,0,.179,0a.962.962,0,0,1,.157.448h0v.179c0,.112-.179-.492.157-.157,0,0,0,.358.134.4s0-.224,0-.179l.2.246h-.2a10.5,10.5,0,0,0,2.238,1.925c0-.134.6.381.649.134h0c-.2-.157.134,0,.291,0-.2,0,.246.381-.224.157l.112.112h1.074c2.887,0,8.036-.694,9.938-5.327h.224A11.953,11.953,0,0,1,38.178,32.1l.313-.157c.157,0,.112,0,0,.157.246-.269.9-.224.985-.336s0-.179,0-.269,0,.313.448,0H39.79c.157,0,.2-.627.4-.671v.134c.313-.112.448-.694.627-.537v.112c.336-.47.224-.112.56-.582h0c.2-.134.179-.336.4-.291h0a2.887,2.887,0,0,0,.425-.47s.157-.112.157-.179.515-.537.582-.649-.157,0-.157,0a.477.477,0,0,0,.269-.336c.022-.224.381.134.582-.224,0,0,0,.134-.134,0s0-.112,0-.134,0,0-.134,0,.224-.4.448-.739h-.134c-.134,0,0-.582.246-.336a5.88,5.88,0,0,1,.313-1.276,2.081,2.081,0,0,0,0-.94v-.425ZM26.561,27.986Zm9.49-14.213h0m3.134.381h0m.224.716h.2a.9.9,0,0,1-.336-.224h.246a.759.759,0,0,1-.6-.224s0-.269.2-.291a.56.56,0,0,1,.448.313,1.164,1.164,0,0,0,.448.425s0-.2.224,0a1.074,1.074,0,0,1,.358.627,6.938,6.938,0,0,0-1.186-.806m2.238,1.768h.134a.783.783,0,0,1,0,.246l-.2-.224M42.655,28.3v-.112h0a.471.471,0,0,0,0-.134h.134l-.269.269m.269-10.072-.134-.291.134-.134h-.157l-.179-.269h0a4.768,4.768,0,0,1,.56.381,1.328,1.328,0,0,1-.246.224m.873,1.992a3.853,3.853,0,0,0-.157-.47l.179-.515v.313h0a1.209,1.209,0,0,1-.157.6m.4,3.134v-.224c0-.067.157,0,.2,0a2.1,2.1,0,0,1-.224.224" transform="translate(36.403 18.899)" fill="#673065"/>
    <path id="Path_99" data-name="Path 99" d="M52.861,10.044h0a.783.783,0,0,0,.157-.627h0v-.6c-.179,0-.134-.246-.134-.515s0-.582-.2-.627,0-.56,0-.761h0c.134-.269-.246-.6-.313-.851s0-.134.134,0-.2-.918-.313-.985-.179,0-.269,0,.313,0,0-.448v.134c0-.022-.627-.2-.671-.4h0c0-.336-.649-.448-.515-.627h0c-.47-.336,0-.224-.582-.56h0c-.134-.2-.336-.2-.291-.4h0a4.476,4.476,0,0,0-.47-.448s-.112-.134-.179-.134-.537-.515-.649-.582,0,.157,0,.157a.63.63,0,0,0-.336-.291.515.515,0,0,0,0-.269,14.414,14.414,0,0,0-1.679,0C43.661,1.069,38.6,1.83,36.7,6.418h-.224A12.669,12.669,0,0,1,39.61.711h.2L40.259.33h-.291a1.164,1.164,0,0,0-.783.291s.157-.112.2,0c-.381.134-.671.47-.918.515h0a3.335,3.335,0,0,0-.694.336h0a4.477,4.477,0,0,1-.828.157c-.224.157-.4.336-.4.515s-.358.336-.515.47h0a1.7,1.7,0,0,1-.4.4c-.2.515-.627.806-.873,1.209h0l-.045.47c.134,0,0,0-.134.2a.985.985,0,0,0-.224.515,1.544,1.544,0,0,0,0,.291c.179-.291,0,0,.179.134l-.134.134h0c-.112,0-.224.448-.358.537s0,0,0-.134h0c0,.246,0,.134-.112.134s0,.4,0,.649c-.134-.313-.134.6-.291.4.134.224,0,.134,0,.291a1.88,1.88,0,0,1,.336-.739v.246c.224,0,0-.492.157-.6a.358.358,0,0,0,0,.291h-.112a1.343,1.343,0,0,1,.269-.739c0,.2.179-.2.224,0v.134h0s-.179.515-.246.783v.157h0a5.949,5.949,0,0,1-.157.828c-.045.291-.246.358-.336.246s.134,0,0,.381-.134-.291-.157-.291,0,.2-.157.2.448.358.515.157a.537.537,0,0,1,0-.381,9.289,9.289,0,0,0,2.641,7.655l.4.358c-.157,0-.336,0-.291.179l-.112-.134c0,.134.4.358.381.537l.537.224s0,.157-.112.112.2.179,0,.134a17.258,17.258,0,0,1,1.835.873,5.931,5.931,0,0,0,1.925.56h0l.358.179.381-.157c.134,0,0,.134,0,.157a17.906,17.906,0,0,0,1.88,0c.179,0,0-.157.179-.2-.134.134,0,.134.224.134h.269c-.09,0,.806-.179.649-.47h.179a3.962,3.962,0,0,1,.828-.134l.761-.291c.358-.157.694-.336.761-.515,0,.224,0,0,.246,0v.2l.358-.224h0V17.52c0-.179.291-.112.448-.157V17.5h.157c.134,0-.47.2-.134-.134,0,0,.358,0,.381-.157s-.2,0-.157,0l.246-.2v.2a11.057,11.057,0,0,0,1.925-2.238c-.134,0,.381-.6.134-.649h0c-.157.2-.112-.157,0-.313,0,.224.358-.224.157.246l.269-.313c.246,0,.358-.246.448-.56a4.164,4.164,0,0,1,.492-.962h0c.313-.47.2-1.186.269-1.3h0a1.321,1.321,0,0,0,.224-1.03M38.267,1.315a.6.6,0,0,1,.224.246L38.2,1.83l-.134-.224v.157a1.119,1.119,0,0,0-.269.179h0a2.418,2.418,0,0,1,.381-.56M37.036,2.613l-.224.224V2.7h.269M34.35,5.389h0m-.358,3.134h0m1.1-3.357q0-.1,0-.2a.9.9,0,0,1-.224.336V5.053a.783.783,0,0,1-.224.6s-.269,0-.291-.2a.56.56,0,0,1,.313-.448,1.164,1.164,0,0,0,.425-.448s-.2,0,0-.224a1.231,1.231,0,0,1,.627-.358,9.871,9.871,0,0,0-.783,1.186M48.048,18.013ZM48.384,1.83h0l-.246-.157h0V1.539l.269.269h-.179" transform="translate(48.292)" fill="#673065"/>
    <path id="Path_100" data-name="Path 100" d="M71.6,37.266a10.519,10.519,0,0,0,0-1.88c0-.179-.157,0-.2-.179.134.157.134,0,.134-.2v-.291c0,.067-.179-.806-.47-.627,0-.269,0-.269.112-.179a3.963,3.963,0,0,1-.134-.828s-.157-.425-.291-.761-.336-.694-.515-.761c.224,0,0,0,0-.246h.2a1.925,1.925,0,0,0-.224-.358h-.2a1.164,1.164,0,0,1-.134-.47h0l-.045-.224c0-.112.2.492-.134.157,0,0,0-.358-.157-.4s0,.224,0,.179l-.2-.269h.2A11.057,11.057,0,0,0,67.3,28c0,.112-.627-.381-.649-.134h0c.2.134-.157.112-.313,0,.224,0-.224-.381.246-.157l-.112-.112H65.312c-2.91,0-8.036.694-9.938,5.35H55.15a11.885,11.885,0,0,1,3.492-6.088,1.566,1.566,0,0,1-.313.179c-.157,0,0,0,0-.157s-.9.224-.962.336,0,.157,0,.269,0-.313-.448,0h.134c-.022,0-.224.627-.4.649v-.112c-.336.112-.448.671-.627.515h0c-.358.448-.224.112-.56.582h0c-.2.157-.2.336-.4.313h0a4.681,4.681,0,0,0-.448.492s-.134.112-.134.179-.515.515-.582.649.134,0,.157,0a.381.381,0,0,0-.291.358c-.157,0-.358-.134-.56.2h0v.134c0,.134,0,0,.134,0s-.224.4-.448.739h0s0,.56-.224.336a7.547,7.547,0,0,1-.313,1.276,2.238,2.238,0,0,0,0,.94v.425h0c-.2.358,0,.291-.269.716,0-.179.157,0,.246,0l-.2.313h.157a.627.627,0,0,0,0,.4h0a4.525,4.525,0,0,1-.2.716.359.359,0,0,0,.2.448.426.426,0,0,0,0,.179h0a1.366,1.366,0,0,0,0,.336v-.112a.291.291,0,0,0,0,.134h0a.425.425,0,0,1,0,.269,1.3,1.3,0,0,1,.179.671,1.432,1.432,0,0,0,.246.6c.157.381.492.649.537.918h0a4.006,4.006,0,0,0,.336.694h0c0,.134.269.381.425.6s.313.4.492.4.336.336.47.515h0a1.724,1.724,0,0,1,.4.425c.537.179.806.627,1.209.851h0l.358.313c0-.134,0,0,.2.134a.985.985,0,0,0,.515.224h.291c-.291-.179,0,0,.134-.2l.134.157h0c0,.134.448.2.537.358H59.4c-.313.157.6.134.4.291H60.1a1.41,1.41,0,0,1-.739-.336H59.6c-.112-.2-.492,0-.6-.134s.269,0,.291,0v.134a1.365,1.365,0,0,1-.716-.358c.224,0-.2-.157,0-.2h.134l.761.224h0l.828.179c0,.134.358.224.246.313s0,0,.381,0-.246.134-.313.179.2,0,.2.157.358-.448.157-.537a.381.381,0,0,1-.381,0A9.155,9.155,0,0,0,68.245,42.5a2.887,2.887,0,0,0,.358-.381c0,.157,0,.313.179.291l-.134.112c.134,0,.358-.4.537-.4a2.979,2.979,0,0,0,.224-.537h.112c-.045,0,.179-.2.134,0a15.67,15.67,0,0,1,.873-1.858,5.8,5.8,0,0,0,.56-1.9h0a2.49,2.49,0,0,0,.179-.358,2.733,2.733,0,0,1-.157-.381c0-.134.134,0,.179,0M52.33,35.677a.313.313,0,0,0-.2,0l.224-.246v.246m.4,3.895a1.723,1.723,0,0,0,0-.336h0a.985.985,0,0,1,.157-.6,3.848,3.848,0,0,0,.157.47l-.179.515m1.276-8.953v.2h0v.157h-.134l.269-.291m0,10.7a3.313,3.313,0,0,1-.56-.4s.134-.134.246-.224l.179.291-.134.134h.157a1.857,1.857,0,0,0,.179.269h0m.761,1.007a.447.447,0,0,1,0-.246l.179.224h0m2.6,2.462h0m0-.134a.492.492,0,0,1-.448-.291,1.03,1.03,0,0,0-.448-.425s0,.2-.224,0a1.388,1.388,0,0,1-.381-.627,14.165,14.165,0,0,0,1.209.806.425.425,0,0,0-.2,0,.537.537,0,0,1,.313.224H57.5a.783.783,0,0,1,.6.224c.246.224,0,.269-.2.269m3,.515Zm9.49-14.258h0" transform="translate(75.191 38.378)" fill="#673065"/>
    <path id="Path_101" data-name="Path 101" d="M61.124,23.529v-.694h0a1.657,1.657,0,0,1,0-.582,7.162,7.162,0,0,1-.224-1.477h0a3.336,3.336,0,0,0,0-.47c0,.157,0,0,0-.224a.94.94,0,0,0-.224-.537v-.291c0,.336-.134,0-.246,0v-.2h0c0-.134-.157-.47,0-.6h0c-.134-.2,0-.134,0-.157a1.042,1.042,0,0,0-.515-.425c.313.112-.313-.537,0-.492-.246,0,0-.112-.269-.134a1.366,1.366,0,0,1,.269.739l-.2-.134c0,.224.313.381.313.537s-.134-.246-.179-.224h.157a1.455,1.455,0,0,1,.246.739c-.134-.157,0,.269-.134.179v-.157h0s-.246-.47-.381-.716h0v-.134h0c-.134-.224-.269-.448-.425-.671s0-.448,0-.4-.157,0-.291-.246.269,0,.336.112,0-.246,0-.269-.56,0-.47.246l-.761-.313h0a9.11,9.11,0,0,0-3.089-2.238h-.381c-2.887,0-8.036.694-9.938,5.35h-.224a12.266,12.266,0,0,1,3.425-5.864h0a5.327,5.327,0,0,0-1.768.918h0a.533.533,0,0,0-.358.134,1.461,1.461,0,0,0-.179.381c-.067.134,0,0-.134,0-.56.381-.918.985-1.365,1.3,0,.179.157,0,0,.269,0-.179,0,0-.246,0s-.246.269-.246.157c0,.313-.448.694-.134.783-.134.224-.224,0-.2,0a3.067,3.067,0,0,1-.492.671s-.2.4-.358.739a1.679,1.679,0,0,0-.179.9c0-.224,0,0-.2.157v.2h0v.179a.582.582,0,0,1-.224.425h0v.179c0,.157.224-.47.2,0,0,0-.246.246-.179.381,0-.224.134-.179.157,0a1.4,1.4,0,0,1,0,.313l-.157-.112a12.177,12.177,0,0,0,.2,2.955c.134,0,.157.694.358.56h0c0-.246.179,0,.2.224-.134-.179-.112.425-.269,0a2.865,2.865,0,0,0,0,.425c-.179.157,0,.425,0,.694a3.716,3.716,0,0,1,.448.9h0c.134.56.716,1.007.716,1.119h.134a1.276,1.276,0,0,0,.56.918h0a.783.783,0,0,0,.313.56h0l.425.4c.112-.134.246,0,.448.291s.381.425.56.313.381.4.537.56h0s.582.246.806.381,0,.134,0,.157c.358,0,.761.492.918.47s.134-.112.2-.157-.134.291.358.291h0c.157,0,.582-.291.739-.179h-.134c.313.157.783-.157.806,0h2.955c-.224,0-.134,0,0-.134a.381.381,0,0,0,.448,0c0,.157.134.358.56.246h.022c.112,0,.47-.112.873-.2-.157,0,0,0,0-.157s.448-.358.4,0c.336-.224.761-.448,1.142-.671a2.239,2.239,0,0,0,.739-.6c0-.112.246-.134.358-.224h0a4.477,4.477,0,0,0,.2-.918c-.2,0-.179,0-.112-.224h.358v-.157a.56.56,0,0,0,.291-.269h0a5.258,5.258,0,0,1,.649-.358.349.349,0,0,0,.179-.448h.134s0,.179.134,0h0v-.112l.2-.246a.785.785,0,0,0,0,.134,1.435,1.435,0,0,1,0-.157h0a.336.336,0,0,1,.134-.224,1.477,1.477,0,0,1,.358-.627,1.253,1.253,0,0,0,.291-.716s0,.179,0,.2c.179-.381.134-.806.291-1.03h0a2.708,2.708,0,0,0,.269-.739h0a6.067,6.067,0,0,1,.157-.716.783.783,0,0,0,0-.627M41.942,20.53h0M53.134,32.169h-.381l.134-.134h.358v.112M57.5,29.908l.157-.157a1.008,1.008,0,0,0,.157.157H57.5m.962-12.848a.47.47,0,0,1,.246.313l-.246-.313m.291.358h0m1.9,2.507h0M59.96,27h0a1.186,1.186,0,0,1-.537.313,2.776,2.776,0,0,0,.224-.448l.492-.224a1.164,1.164,0,0,1-.224.246m.313-1.589v-.313h0v-.313h0a1.925,1.925,0,0,1,0,.671h-.313m.291-1.679v-.291a.739.739,0,0,1-.134.224m0-1.724a9.177,9.177,0,0,0-.246-1.365.2.2,0,0,0,0,.134.56.56,0,0,1,0-.381,1.053,1.053,0,0,0,.112.224c0-.2-.2-.313-.246-.582s.134-.224.336,0a.582.582,0,0,1,0,.515,1.119,1.119,0,0,0,0,.627s0-.179.134.179a1.119,1.119,0,0,1-.2.694" transform="translate(60.411 19.458)" fill="#673065"/>
    <path id="Path_102" data-name="Path 102" d="M41.2,34.18c-.224,0-.381.291-.537.313a.313.313,0,0,0,.246-.179v.157a1.522,1.522,0,0,1-.761.246h-.134A6.446,6.446,0,0,1,38.8,35.7a.4.4,0,0,0,.224,0,1.074,1.074,0,0,0,.537-.2h.269c-.336,0,0-.134,0-.246h.2c.134,0,.47-.157.627-.112v.112h0c.2-.134.134,0,.157,0a1.174,1.174,0,0,0,.425-.515c-.134.336.515-.313.47,0,0-.246.112,0,.134-.269a1.611,1.611,0,0,1-.739.291Zm-1.858,1.209h0" transform="translate(55.242 48.137)" fill="#673065"/>
    <path id="Path_103" data-name="Path 103" d="M52.576,34.413s0-.112.134,0,0-.269,0,0c-.291-.627-.47-1.276-.694-1.9a5.036,5.036,0,0,0-.962-1.768h0a.568.568,0,0,0-.134-.358l-.224-.291v-.134c-.381-.56-.985-.9-1.321-1.343-.179,0,0,.134-.269,0,.2,0,0,0,0-.246s-.291-.246-.157-.246c-.313,0-.694-.425-.783-.112-.246-.134-.134-.246,0-.224a2.238,2.238,0,0,1-.671-.492,5.485,5.485,0,0,1-.761-.313,1.522,1.522,0,0,0-.9-.179c.224,0,0,0-.157-.2H45.3a.671.671,0,0,1-.425-.2h-.2c-.134,0,.492.224,0,.2,0,0-.224-.246-.381-.157.246,0,.2.112,0,.134h-.336l.134-.134a10.207,10.207,0,0,0-2.955.224c0,.134-.694.179-.56.358h0c.224,0,0,.179-.224.224.179-.134-.425-.112,0-.291h-.4c-.157-.157-.425,0-.694,0a5.551,5.551,0,0,1-.873.47h0c-.56.134-.985.716-1.119.716v.134a1.253,1.253,0,0,0-.873.582h0a.962.962,0,0,0-.56.358h0l-.425.425c.134.112,0,.269-.269.448s-.425.4-.313.582-.4.381-.537.537c-.269.112-.246.6-.358.828s-.134,0-.179,0c0,.358-.47.783-.448.94s0,.112.157.2-.291-.134-.291.358h0c0,.134.291.6.179.761v-.134c-.157.313.157.783,0,.806h0v.806h0c0,.246.112.381,0,.492h0a6.064,6.064,0,0,0,0,.649v1.119c0-.269,0-.157.134,0a.336.336,0,0,0,0,.448c-.179,0-.358.157-.269.56v-.157a.269.269,0,0,1,0,.179h0a2.077,2.077,0,0,0,.2.851c0-.134,0,0,.157,0s.358.425,0,.4c.224.313.448.761.671,1.119a1.88,1.88,0,0,0,.627.716s.134.269.2.381h0a4.656,4.656,0,0,0,.313.716c0-.2,0-.179.224-.134s0,.246,0,.358h.134a.6.6,0,0,0,.291.291h0a3.829,3.829,0,0,1,.381.649.324.324,0,0,0,.448.157.56.56,0,0,0,0,.157s-.179,0,0,.134h.112l.246.2h.851a1.052,1.052,0,0,1,0-.224l.448.2h.425c2.91,0,8.036-.694,9.938-5.327h.224a12.6,12.6,0,0,1-2.619,5.1l.582-.313H47.2l.671-.448h.4c-.022,0,0-.157.246-.291s0,.246-.112.336.246,0,.269,0,0-.56-.269-.47a.358.358,0,0,1-.291.224,9.177,9.177,0,0,0,3.559-7.275,4.343,4.343,0,0,0,0-.537c.134.112.246.224.336,0v.179c.157,0,0-.537,0-.649l-.2-.537M33.976,37.927h0v-.269h0a.537.537,0,0,0,0,.179h0m2.238,4.477V42l.157.179a.492.492,0,0,0-.157.134m9.088-16h0M48.659,43.1Z" transform="translate(47.914 37.601)" fill="#673065"/>
    <path id="Path_104" data-name="Path 104" d="M39.4,34.34h0" transform="translate(55.965 48.298)" fill="#673065"/>
    <path id="Path_105" data-name="Path 105" d="M34.06,34.4h.157c.022,0,0-.246,0,0-.291-.627-.47-1.276-.694-1.9a5.036,5.036,0,0,0-.962-1.768h0a.533.533,0,0,0-.134-.358l-.358-.179V30.06c-.381-.56-.985-.9-1.321-1.343-.179,0,0,.157-.246,0,.179,0,0-.112,0-.224s-.269-.269-.157-.269c-.313,0-.716-.425-.783,0-.246-.134-.112-.224,0-.224a4.274,4.274,0,0,1-.47-.313H27.882c-2.91,0-8.036.694-9.938,5.35H17.72a11.818,11.818,0,0,1,3.648-6.066.918.918,0,0,0-.582.157,5.551,5.551,0,0,1-.873.47h0c-.537.134-.985.716-1.119.739v.112a1.3,1.3,0,0,0-.9.582h0a.806.806,0,0,0-.56.336h0l-.4.425c.112.112,0,.269-.291.448s-.4.425-.291.6-.4.381-.537.515h0c-.269.112-.246.6-.358.828s-.134,0-.157,0c0,.358-.492.783-.47.918s.112.134.157.224-.291-.157-.269.336h0c0,.134.313.582.2.739v-.134c-.157.313.157.806,0,.806h0v.806h0v.515h0a3.178,3.178,0,0,0,0,.649.269.269,0,0,0,0,.224c-.157,0,0,.739,0,.873,0-.246,0-.157.134,0a.336.336,0,0,0,0,.448c-.179,0-.358.157-.269.56v.022c0,.045,0-.112.112,0s0,.448.2.851c0-.157,0,0,.157,0s.358.425,0,.4c.224.336.448.761.671,1.119a2.954,2.954,0,0,0,.6.739s.157.246.246.358h0a4.477,4.477,0,0,0,.806.067c0-.2,0-.179.246-.112v.336h.134a.828.828,0,0,0,.291.269h0a3.987,3.987,0,0,1,.358.649.332.332,0,0,0,.448.157.56.56,0,0,0,0,.157s-.157,0,0,.134h.112l.269.2h0a.4.4,0,0,1,.224.134,1.612,1.612,0,0,1,.627.358,1.119,1.119,0,0,0,.716.269.246.246,0,0,1-.2,0c.381.179.806.134,1.03.291h0a2.6,2.6,0,0,0,.739.246h0l.694.157a.851.851,0,0,0,.649,0h1.231a9.489,9.489,0,0,1,1.477-.224h.694a.963.963,0,0,0,.537-.224h.269c-.313,0,0-.134,0-.224h.2c.134,0,.47-.157.627-.112a.2.2,0,0,1,0,.112h0c.2-.134.134,0,.157,0a1.292,1.292,0,0,0,.425-.537c-.134.336.515-.313.47,0,0-.246.112,0,.134-.269a1.612,1.612,0,0,1-.739.291l.134-.2c-.224,0-.381.313-.537.313a.313.313,0,0,0,.246-.179v.157a1.321,1.321,0,0,1-.761.246c.179-.134-.246,0-.157-.134h.134l.739-.381h.112l.671-.448h.4c-.022,0,0-.134.246-.291s0,.246-.112.336.246,0,.269,0,0-.56-.269-.47a.4.4,0,0,1-.291.246l.291-.246.492-1.007c0,.112,0,0,.112,0h0A9.289,9.289,0,0,0,34.1,35.992a4.343,4.343,0,0,0,0-.537c.134.112.246.246.336.112v.179c.134,0,0-.56,0-.671a5.461,5.461,0,0,0-.224-.537M15.638,38.051s0,.112-.112,0V37.67l.134.134v.179h0a.425.425,0,0,0,0,.179h0M17.9,42.64v-.313l.157.179a.493.493,0,0,0-.157.134m2.932,2.126h0a.918.918,0,0,1-.336-.515l.448.224.246.47-.269-.2m2.238.492a2.8,2.8,0,0,1-.671.112.448.448,0,0,1,0-.336H22.8v.022h.313m1.253.179-.246-.134H24.3a.2.2,0,0,0,0,.112m3-.134a1.209,1.209,0,0,0-.627,0s.179.112-.179.134a1.119,1.119,0,0,1-.694-.2,7.029,7.029,0,0,0,1.365-.269h-.157a.649.649,0,0,1,.4,0l-.224.112c.2,0,.291-.2.582-.246s.224.134,0,.336a.515.515,0,0,1-.515,0m.582,0h0M30.255,43Z" transform="translate(21.272 38.568)" fill="#673065"/>
    <path id="Path_106" data-name="Path 106" d="M58.89,34.5l.246-.045-.045-.022Z" transform="translate(83.658 48.429)" fill="#673065"/>
    <path id="Path_107" data-name="Path 107" d="M57.11,35.3l.179-.022h0Z" transform="translate(81.125 49.634)" fill="#673065"/>
    <path id="Path_108" data-name="Path 108" d="M57.252,35.245l.09-.022L57.23,35.2Z" transform="translate(81.291 49.522)" fill="#673065"/>
    <path id="Path_109" data-name="Path 109" d="M56.06,35.31h0Z" transform="translate(79.624 49.676)" fill="#673065"/>
    <path id="Path_110" data-name="Path 110" d="M55.78,35.322l.112.067V35.3Z" transform="translate(79.232 49.666)" fill="#673065"/>
    <path id="Path_111" data-name="Path 111" d="M55.647,35.112l.067-.09L55.58,35Z" transform="translate(78.949 49.24)" fill="#673065"/>
    <path id="Path_112" data-name="Path 112" d="M59.722,33.892l-.022.157.09-.179Z" transform="translate(84.798 47.638)" fill="#673065"/>
    <path id="Path_113" data-name="Path 113" d="M46.792,13.6l.179.09-.2-.134Z" transform="translate(66.44 18.79)" fill="#673065"/>
    <path id="Path_114" data-name="Path 114" d="M48.63,14.26l.157.112-.157-.112Z" transform="translate(69.08 19.784)" fill="#673065"/>
    <path id="Path_115" data-name="Path 115" d="M48.6,14.327v-.045l-.067-.022Z" transform="translate(68.933 19.783)" fill="#673065"/>
    <path id="Path_116" data-name="Path 116" d="M49.43,15.062h.045l-.022-.022Z" transform="translate(70.21 20.89)" fill="#673065"/>
    <path id="Path_117" data-name="Path 117" d="M49.6,15.267l.09.045-.022-.112Z" transform="translate(70.454 21.119)" fill="#673065"/>
    <path id="Path_118" data-name="Path 118" d="M49.52,15.582l.09.09.045-.112Z" transform="translate(70.342 21.631)" fill="#673065"/>
    <path id="Path_119" data-name="Path 119" d="M45.84,13.457l.09.022.134-.09Z" transform="translate(65.12 18.548)" fill="#673065"/>
    <path id="Path_120" data-name="Path 120" d="M32.546,67.145s.157-.134.157,0a11.19,11.19,0,0,1,0,1.589c0,.291-.269.4-.761.4H27.331c-.134,0-.112-.134,0-.134.694,0,.783-.246.806-1.321s0-1.925,0-2.373V62.49c0-1.074-.112-1.253-.806-1.365-.112,0-.112-.134,0-.134h2.507c.134,0,.112.134,0,.134-.582,0-.716.246-.739,1.321v5.372c0,.582,0,.873.828.9h1.186c1.1,0,1.343-.716,1.5-1.544" transform="translate(38.861 86.826)" fill="#5c5e5e"/>
    <path id="Path_121" data-name="Path 121" d="M34.192,62.633l-.6,1.477-.6,1.544h2.238c-.336-1.007-.694-1.97-1.119-3.022m.134-1.5c0-.2.112-.224.157-.224s0,0,.157.224c.358,1.1,1.612,4.477,2.619,6.984.291.761.515.873,1.119.962v.134H35.781c-.112,0,0-.134,0-.134.515,0,.6-.2.4-.783s-.47-1.477-.761-2.238H32.849c-.2.537-.582,1.522-.783,2.238s.134.783.56.828c0,0,.112.134,0,.134H30.23v-.134a1.164,1.164,0,0,0,1.052-.739c.381-.694.828-1.835,1.276-2.887Z" transform="translate(43.218 86.727)" fill="#5c5e5e"/>
    <path id="Path_122" data-name="Path 122" d="M38.244,62.646l-.6,1.477-.582,1.544H39.3c-.336-1.007-.694-1.97-1.119-3.022m.067-1.522c0-.2,0-.224.157-.224s0,0,.134.224c.381,1.1,1.612,4.477,2.619,6.984.313.761.537.873,1.142.962V69.2H39.766V69.07c.515,0,.6-.2.425-.783s-.492-1.477-.783-2.238H36.834c-.2.537-.582,1.522-.783,2.238s.134.783.582.828v.134H34.238c-.112,0,0-.134,0-.134a1.209,1.209,0,0,0,1.052-.739c.381-.694.828-1.835,1.253-2.887Z" transform="translate(48.877 86.715)" fill="#5c5e5e"/>
    <path id="Path_123" data-name="Path 123" d="M43.611,69.115v.134l-.112-.134c-.448-1.052-2.552-4.969-3.134-5.954,0,1.455-.246,3.357-.336,4.9,0,.918.246.918.9,1.03v.134H38.44v-.134c.6,0,.761-.2.873-1.03.291-2.238.515-4.477.716-6.872,0-.179,0-.269.112-.269s.134.157.2.269c.381.94,2.238,4.477,3.38,6.424.246-.448.739-1.41,1.3-2.574l1.9-3.917c0-.157,0-.224.179-.224s0,0,0,.246c.134,1.791.6,5.641.828,7.051.134.672.224.783.783.873V69.2H46.677c-.157,0-.134-.134,0-.134s.336,0,.291-.627c0-1.164-.425-4.118-.582-5.35-.2.47-.694,1.41-1.164,2.373a39.17,39.17,0,0,0-1.679,3.626" transform="translate(55.056 86.715)" fill="#5c5e5e"/>
    <path id="Path_124" data-name="Path 124" d="M48.464,69.329c-2.552,0-3.469-1.164-3.469-3.828V62.547c0-1.3-.269-1.343-.985-1.433V60.98h2.708v.134c-.582,0-.739.157-.783,1.433V65.5c0,2.1.381,3.537,2.574,3.537s2.6-1.791,2.6-3.693V62.233c0-.9-.224-.985-.783-1.052,0,0-.112-.134,0-.134h2.194v.134c-.492,0-.671.291-.694,1.052s0,2.238,0,3.044c0,2.529-.918,4.118-3.268,4.118" transform="translate(62.937 86.814)" fill="#5c5e5e"/>
  </g>
</svg>
